<svg width="145" height="40" viewBox="0 0 145 40" fill="none" xmlns="http://www.w3.org/2000/svg">
<path fill-rule="evenodd" clip-rule="evenodd" d="M119.496 26.3674C122.344 26.3674 124.597 23.0989 124.597 19.077V9.35645H126.884V19.077C126.884 24.4233 123.591 28.7368 119.542 28.7368C115.493 28.7368 112.199 24.4233 112.199 19.077V9.35645H114.487V19.077C114.395 23.1596 116.648 26.4281 119.485 26.4281L119.496 26.3674ZM64.4066 28.8815H62.1192V27.144C60.644 28.241 58.8875 28.8305 57.0868 28.8329C52.8553 28.863 49.1565 25.8065 48.1425 21.4419C47.1285 17.0773 49.0639 12.5434 52.8226 10.4783C56.5813 8.41325 61.1826 9.35583 63.9491 12.7576L62.2678 14.3493C60.1645 11.851 56.7287 11.1983 53.9407 12.7673C51.1527 14.3364 49.731 17.7229 50.495 20.9751C51.259 24.2272 54.0118 26.5068 57.1669 26.5C59.0903 26.5042 60.9196 25.6168 62.1763 24.0699H56.0003V21.6397H64.4295L64.4066 28.8815ZM25.7132 9.51367H23.4258V28.8575H32.5755V26.4274H25.7132V9.51367ZM39.7021 24.0945C43.492 24.0945 46.5644 20.8305 46.5644 16.8041C46.5644 12.7777 43.492 9.51367 39.7021 9.51367C37.8821 9.51367 36.1367 10.2818 34.8498 11.649C33.5628 13.0162 32.8398 14.8705 32.8398 16.8041C32.8398 20.8305 35.9122 24.0945 39.7021 24.0945ZM39.7038 21.6658C42.2304 21.6658 44.2786 19.4898 44.2786 16.8056C44.2786 14.1213 42.2304 11.9453 39.7038 11.9453C37.1771 11.9453 35.1289 14.1213 35.1289 16.8056C35.1415 19.4803 37.186 21.6416 39.7038 21.6415V21.6658ZM44.2786 28.8833V26.4531H35.1289V28.8833H44.2786ZM79.6856 16.8527C79.6856 12.8263 76.6133 9.56232 72.8234 9.56232L72.8462 9.51371C71.0143 9.50718 69.256 10.2791 67.9628 11.6575C66.6696 13.036 65.9489 14.9066 65.9611 16.8527C65.9611 20.8791 69.0334 24.1431 72.8234 24.1431C76.6133 24.1431 79.6856 20.8791 79.6856 16.8527ZM72.8209 21.7137C75.3476 21.7137 77.3958 19.5377 77.3958 16.8534C77.3958 14.1692 75.3476 11.9932 72.8209 11.9932C70.2943 11.9932 68.2461 14.1692 68.2461 16.8534C68.2837 19.5187 70.3349 21.6544 72.8438 21.6408L72.8209 21.7137ZM77.3958 28.9311V26.501H68.2461V28.9311H77.3958ZM82.1211 9.51367H84.4085V28.8332H82.1211V9.51367ZM89.8655 9.51434H87.5781V28.8704H89.8655V24.0101H90.2201C92.8339 24.3113 95.38 22.9995 96.7757 20.6324C98.1714 18.2653 98.1714 15.2591 96.7757 12.892C95.38 10.5249 92.8339 9.21308 90.2201 9.51434C90.1022 9.50107 89.9834 9.50107 89.8655 9.51434ZM89.863 11.9439V12.0006L89.8516 12.0047L89.863 11.9439ZM89.863 12.0006C89.9781 11.9601 90.097 11.9329 90.2176 11.9196C91.9815 11.6701 93.7217 12.5299 94.6786 14.1239C95.6355 15.7179 95.6355 17.7568 94.6786 19.3508C93.7217 20.9448 91.9815 21.8046 90.2176 21.5551H89.863V12.0006ZM106.307 10.9426L106.345 10.9108L106.334 10.9716L106.307 10.9426ZM103.12 9.57425C104.316 9.53672 105.472 10.0334 106.307 10.9426L104.652 12.3325C104.056 11.6706 103.153 11.4357 102.336 11.7301C101.52 12.0245 100.938 12.7948 100.844 13.7055V13.8999C100.844 14.9691 101.541 15.686 102.902 15.7832C108.141 16.1235 110.542 18.7359 110.542 22.1866V22.4054C110.266 25.1945 108.485 27.5564 105.982 28.4503C103.48 29.3442 100.717 28.606 98.9109 26.5609L100.661 25.1271C101.485 26.0657 102.656 26.5722 103.863 26.5123C106.152 26.6405 108.129 24.8293 108.347 22.4054V22.2352C108.347 18.991 105.35 18.3956 102.754 18.1283C100.352 17.8853 98.625 16.2936 98.625 13.9971V13.8999C98.8009 11.4169 100.777 9.51549 103.12 9.57425ZM142.153 28.7968H144.44L144.417 9.51367L136.869 20.0726L129.32 9.51367V28.8332H131.608V16.7676L136.88 24.058L142.153 16.7676V28.7968Z" fill="white"/>
<path fill-rule="evenodd" clip-rule="evenodd" d="M12.4436 6.60996C12.4436 2.95938 9.658 0 6.2218 0C2.78559 0 0 2.95938 0 6.60996V26.5978L5.12383 30.4982V40H7.31976V30.4982L12.4436 26.5978V6.60996ZM10.2482 17.7892L7.32031 20.8998V17.9836L10.2482 14.873V17.7892ZM5.17009 17.9836L2.24219 14.873V17.7892L5.17009 20.8998V17.9836ZM10.247 11.5681L6.22118 15.8451L2.19531 11.4708V8.55469L6.22118 12.8317L10.247 8.55469V11.5681ZM10.1093 5.50411C9.63122 3.6387 8.04041 2.34134 6.22065 2.33278V2.28418C4.38784 2.29866 2.79279 3.61942 2.33203 5.50411L6.22065 9.62318L10.1093 5.50411ZM2.19531 25.4182V21.0439L5.12322 24.1545V27.6296L2.19531 25.4182ZM7.32031 24.1545V27.6418L10.2482 25.406V21.0439L7.32031 24.1545Z" fill="#473BF0"/>
</svg>
