<svg width="203" height="57" viewBox="0 0 203 57" fill="none" xmlns="http://www.w3.org/2000/svg">
<path fill-rule="evenodd" clip-rule="evenodd" d="M167.294 37.4152C171.281 37.4152 174.435 32.8392 174.435 27.2086V13.5999H177.638V27.2086C177.638 34.6934 173.026 40.7323 167.358 40.7323C161.69 40.7323 157.078 34.6934 157.078 27.2086V13.5999H160.281V27.2086C160.153 32.9243 163.307 37.5002 167.278 37.5002L167.294 37.4152ZM90.1638 40.9353H86.9614V38.5028C84.8962 40.0386 82.4371 40.8639 79.9162 40.8673C73.9921 40.9094 68.8137 36.6303 67.3941 30.5199C65.9745 24.4094 68.6841 18.062 73.9463 15.1709C79.2085 12.2798 85.6503 13.5994 89.5234 18.3618L87.1696 20.5903C84.2249 17.0926 79.4147 16.1788 75.5115 18.3755C71.6083 20.5722 69.618 25.3133 70.6876 29.8663C71.7572 34.4192 75.6112 37.6107 80.0283 37.6012C82.721 37.6071 85.2821 36.3647 87.0415 34.199H78.395V30.7968H90.1959L90.1638 40.9353ZM35.9954 13.8198H32.793V40.9012H45.6025V37.499H35.9954V13.8198ZM55.5798 34.2329C60.8857 34.2329 65.187 29.6633 65.187 24.0263C65.187 18.3894 60.8857 13.8198 55.5798 13.8198C53.0319 13.8198 50.5882 14.8951 48.7865 16.8092C46.9848 18.7233 45.9727 21.3194 45.9727 24.0263C45.9727 29.6633 50.2739 34.2329 55.5798 34.2329ZM55.5791 30.8329C59.1164 30.8329 61.9839 27.7864 61.9839 24.0285C61.9839 20.2705 59.1164 17.2241 55.5791 17.2241C52.0419 17.2241 49.1743 20.2705 49.1743 24.0285C49.192 27.7731 52.0543 30.7989 55.5791 30.7988V30.8329ZM61.9839 40.9381V37.5359H49.1743V40.9381H61.9839ZM111.557 24.0944C111.557 18.4575 107.255 13.8879 101.949 13.8879L101.981 13.8198C99.4167 13.8107 96.9551 14.8913 95.1446 16.8212C93.3341 18.751 92.3251 21.3698 92.3422 24.0944C92.3422 29.7314 96.6435 34.301 101.949 34.301C107.255 34.301 111.557 29.7314 111.557 24.0944ZM101.948 30.8997C105.486 30.8997 108.353 27.8533 108.353 24.0953C108.353 20.3374 105.486 17.2909 101.948 17.2909C98.4112 17.2909 95.5436 20.3374 95.5436 24.0953C95.5963 27.8266 98.4679 30.8167 101.98 30.7976L101.948 30.8997ZM108.353 41.0049V37.6027H95.5436V41.0049H108.353ZM114.967 13.8198H118.17V40.8672H114.967V13.8198ZM125.806 13.8213H122.604V40.9197H125.806V34.1153H126.302C129.962 34.5371 133.526 32.7006 135.48 29.3866C137.434 26.0727 137.434 21.8639 135.48 18.55C133.526 15.2361 129.962 13.3995 126.302 13.8213C126.137 13.8027 125.971 13.8027 125.806 13.8213ZM125.806 17.223V17.3023L125.79 17.308L125.806 17.223ZM125.806 17.3023C125.967 17.2456 126.134 17.2076 126.303 17.189C128.772 16.8396 131.208 18.0434 132.548 20.275C133.888 22.5066 133.888 25.361 132.548 27.5926C131.208 29.8242 128.772 31.028 126.303 30.6786H125.806V17.3023ZM148.826 15.8202L148.879 15.7757L148.863 15.8607L148.826 15.8202ZM144.364 13.9045C146.039 13.8519 147.657 14.5473 148.826 15.8202L146.509 17.766C145.675 16.8394 144.41 16.5105 143.267 16.9226C142.124 17.3348 141.309 18.4133 141.177 19.6882V19.9604C141.177 21.4573 142.154 22.461 144.059 22.5971C151.393 23.0734 154.755 26.7307 154.755 31.5618V31.868C154.369 35.7728 151.874 39.0795 148.371 40.331C144.868 41.5824 141 40.5489 138.471 37.6858L140.921 35.6785C142.075 36.9925 143.715 37.7016 145.404 37.6177C148.609 37.7972 151.377 35.2616 151.681 31.868V31.6299C151.681 27.0879 147.486 26.2544 143.851 25.8802C140.489 25.54 138.071 23.3115 138.071 20.0965V19.9604C138.317 16.4842 141.083 13.8222 144.364 13.9045ZM199.012 40.8161H202.215L202.182 13.8198L191.615 28.6023L181.047 13.8198V40.8672H184.249V23.9753L191.631 34.1819L199.012 23.9753V40.8161Z" fill="#2F4858"/>
<path fill-rule="evenodd" clip-rule="evenodd" d="M17.421 9.75395C17.421 4.64313 13.5212 0.5 8.71051 0.5C3.89983 0.5 0 4.64313 0 9.75395V37.7369L7.17336 43.1975V56.5H10.2477V43.1975L17.421 37.7369V9.75395ZM14.3466 25.4053L10.2475 29.7601V25.6774L14.3466 21.3226V25.4053ZM7.23822 25.6774L3.13916 21.3226V25.4053L7.23822 29.7601V25.6774ZM14.3469 16.6952L8.71069 22.6831L3.07448 16.5592V12.4765L8.71069 18.4644L14.3469 12.4765V16.6952ZM14.1545 8.20516C13.4852 5.59359 11.2581 3.77728 8.71043 3.76531V3.69726C6.14449 3.71753 3.91142 5.5666 3.26636 8.20516L8.71043 13.9719L14.1545 8.20516ZM3.07448 36.0857V29.9618L7.17354 34.3166V39.1817L3.07448 36.0857ZM10.2475 34.3166V39.1987L14.3466 36.0687V29.9618L10.2475 34.3166Z" fill="#473BF0"/>
</svg>
